<svg width="250" height="250" viewBox="0 0 250 250" fill="none" xmlns="http://www.w3.org/2000/svg">
<path d="M203.472 53.2164C189.131 46.6363 173.753 41.7883 157.674 39.0116C157.381 38.9581 157.089 39.092 156.938 39.3598C154.96 42.8775 152.77 47.4666 151.235 51.0736C133.941 48.4844 116.736 48.4844 99.7967 51.0736C98.2624 47.3863 95.992 42.8775 94.0054 39.3598C93.8547 39.1009 93.562 38.967 93.2693 39.0116C77.1992 41.7794 61.8209 46.6274 47.4713 53.2164C47.3471 53.2699 47.2407 53.3592 47.1698 53.4753C18.0006 97.0537 10.0098 139.561 13.9298 181.541C13.9476 181.746 14.0628 181.943 14.2225 182.068C33.4676 196.201 52.1096 204.781 70.4058 210.468C70.6985 210.558 71.0089 210.451 71.1951 210.209C75.523 204.299 79.3809 198.067 82.689 191.514C82.8841 191.13 82.6978 190.675 82.2987 190.523C76.1793 188.202 70.3526 185.371 64.7475 182.157C64.3041 181.898 64.2686 181.264 64.6766 180.961C65.8561 180.077 67.0357 179.157 68.162 178.229C68.366 178.059 68.6498 178.023 68.8892 178.131C105.712 194.942 145.577 194.942 181.965 178.131C182.205 178.014 182.489 178.05 182.701 178.22C183.828 179.148 185.007 180.077 186.196 180.961C186.604 181.264 186.577 181.898 186.134 182.157C180.529 185.434 174.702 188.202 168.574 190.514C168.174 190.666 167.997 191.13 168.192 191.514C171.571 198.058 175.429 204.29 179.677 210.201C179.855 210.451 180.174 210.558 180.467 210.468C198.851 204.781 217.493 196.201 236.738 182.068C236.907 181.943 237.013 181.755 237.031 181.55C241.723 133.016 229.173 90.8576 203.765 53.4842C203.703 53.3592 203.596 53.2699 203.472 53.2164ZM88.1876 155.98C77.1017 155.98 67.9669 145.802 67.9669 133.302C67.9669 120.803 76.9243 110.625 88.1876 110.625C99.5395 110.625 108.586 120.892 108.408 133.302C108.408 145.802 99.4508 155.98 88.1876 155.98ZM162.951 155.98C151.865 155.98 142.73 145.802 142.73 133.302C142.73 120.803 151.688 110.625 162.951 110.625C174.303 110.625 183.349 120.892 183.171 133.302C183.171 145.802 174.303 155.98 162.951 155.98Z" fill="#FF5959"/>
</svg>
