<svg width="250" height="250" viewBox="0 0 250 250" fill="none" xmlns="http://www.w3.org/2000/svg">
<path d="M125.5 15C187.808 15 238 65.1923 238 127.5C238 177.26 205.548 219.663 160.981 234.375C157.087 235.673 153.625 233.51 153.625 228.75V198.029C153.625 182.885 145.837 177.26 145.837 177.26C170.5 174.663 197.327 165.144 197.327 121.875C197.327 102.837 185.644 91.5865 185.644 91.5865C185.644 91.5865 191.702 79.0385 184.779 61.7308C184.779 61.7308 175.26 58.7019 153.625 73.4135C135.452 68.2212 115.548 68.2212 97.375 73.4135C75.7404 58.7019 66.2212 61.7308 66.2212 61.7308C59.2981 79.0385 65.3558 91.5865 65.3558 91.5865C65.3558 91.5865 53.6731 102.837 53.6731 121.875C53.6731 165.144 80.5 174.663 105.163 177.26C105.163 177.26 99.1058 181.587 97.8077 192.404C91.3173 195.433 74.875 200.192 64.9231 182.885C64.9231 182.885 59.2981 172.067 48.0481 171.202C48.0481 171.202 36.7981 171.202 47.1827 178.125C47.1827 178.125 54.5385 181.587 59.7308 194.567C59.7308 194.567 66.6538 216.635 97.8077 209.712V228.75C97.8077 233.51 93.9135 235.673 90.0192 234.375C45.4519 219.663 13 177.26 13 127.5C13 65.1923 63.1923 15 125.5 15Z" fill="#FF5959"/>
</svg>
