<svg width="250" height="250" viewBox="0 0 250 250" fill="none" xmlns="http://www.w3.org/2000/svg">
<path d="M237.034 113.975L237.554 124.285C237.554 120.77 237.343 117.374 237.034 113.975Z" fill="#FF5959"/>
<path d="M70.4585 113.381C70.4585 113.381 39.2383 228.427 164.386 229.429C184.015 222.139 201.215 209.505 214.041 192.954C226.868 176.404 234.81 156.596 236.971 135.768C237.273 132.781 237.364 129.733 237.428 126.678L237.547 124.288C237.547 120.773 237.336 117.378 237.027 113.979C203.968 244.139 57.6991 193.154 70.4585 113.381V113.381Z" fill="#FF5959"/>
<path d="M135.173 70.6777C135.173 70.6777 18.6581 38.1499 20.4402 165.192C26.4157 180.546 35.6812 194.402 47.5935 205.79C48.0856 206.265 48.648 206.711 49.119 207.179C52.4934 210.286 56.0436 213.182 59.7695 215.861C60.3459 216.276 60.8942 216.726 61.4707 217.133C65.4082 219.825 69.5139 222.263 73.7626 224.43C74.9929 225.063 76.2231 225.647 77.5237 226.237C81.1803 227.959 84.9282 229.479 88.7506 230.793C89.6891 231.109 90.5854 231.513 91.5344 231.847C96.1145 233.253 100.779 234.357 105.507 235.158C106.934 235.411 108.389 235.615 109.83 235.819C114.731 236.528 119.673 236.913 124.625 236.972C124.814 236.972 124.997 237 125.187 237C128.92 237 132.604 236.8 136.245 236.438C5.49447 205.246 55.207 59.0536 135.173 70.7163V70.6777Z" fill="#FF5959"/>
<path d="M180.59 130.932C180.59 130.932 208.158 14.7049 84.0686 19.9071C60.5867 28.9847 40.8823 45.7655 28.1813 67.5022C15.4802 89.2389 10.5351 114.644 14.1554 139.557C40.2718 8.09675 189.054 50.6387 180.59 130.939V130.932ZM121.011 180.95C121.011 180.95 237.737 196.184 230.433 85.2157C221.331 60.401 203.722 39.6193 180.738 26.5668C157.755 13.5142 130.887 9.03707 104.912 13.9316C234.978 29.8967 201.174 182.082 121.011 180.946V180.95ZM157.672 124.288C157.674 130.512 155.829 136.595 152.373 141.77C148.916 146.945 144.002 150.978 138.252 153.36C132.503 155.741 126.176 156.364 120.072 155.149C113.969 153.935 108.363 150.937 103.963 146.535C99.5638 142.134 96.5686 136.526 95.3565 130.422C94.1445 124.318 94.7701 117.992 97.1542 112.243C99.5383 106.495 103.574 101.583 108.75 98.1282C113.926 94.6737 120.011 92.832 126.234 92.8362C134.573 92.8417 142.568 96.1577 148.463 102.055C154.358 107.953 157.671 115.95 157.672 124.288V124.288Z" fill="#FF5959"/>
</svg>
