<svg width="500" height="250" viewBox="0 0 500 250" fill="none" xmlns="http://www.w3.org/2000/svg">
<path fill-rule="evenodd" clip-rule="evenodd" d="M440.102 209.868C441.618 209.728 443.416 209.562 445.496 209.302C470.664 207.145 489.361 186.291 487.922 161.842C487.203 151.774 483.608 142.426 477.136 135.235V114.381C484.327 105.752 487.922 95.6849 487.922 84.1794C487.203 59.7301 467.069 39.5955 442.619 39.5955H441.9L418.889 40.3146C410.26 40.3146 402.35 43.191 395.159 47.5055H385.811C375.743 47.5055 366.395 50.3819 358.485 56.1347C350.575 49.6628 339.789 46.0673 329.721 46.0673H326.126C325.474 46.0673 324.1 46.133 322.182 46.2246C317.753 46.4363 310.425 46.7864 302.396 46.7864L275.07 47.5055H273.632C265.003 40.3146 254.216 36 243.43 36H237.677L218.981 38.8764C210.352 39.5955 201.723 43.91 195.251 49.6628C183.026 47.5055 168.644 48.2246 151.386 50.3819C142.757 51.8201 134.847 55.4156 128.375 61.1683C120.465 49.6628 107.521 42.4719 93.1391 41.7528H90.9819C83.7909 41.7528 77.3191 43.191 70.8472 46.7864C51.4316 46.7864 34.1734 57.5729 24.8251 74.8312C19.7915 84.8985 18.3533 94.9658 17.6342 99.9995V102.157C16.9151 107.91 16.196 113.662 17.6342 119.415C15.4769 125.168 14.0387 130.921 14.0387 136.673C14.0387 137.2 13.9424 138.401 13.8202 139.923C13.6086 142.56 13.3196 146.163 13.3196 148.898C12.7947 155.196 13.0361 161.112 13.2047 165.246C13.2671 166.776 13.3196 168.061 13.3196 169.033V169.752C15.4769 193.482 34.8925 211.459 58.6226 211.459H61.499C70.1281 210.74 78.0382 207.864 84.51 203.549C87.3864 203.549 90.9819 202.83 93.8582 202.111C103.206 208.583 115.431 212.178 127.656 212.178H131.251C135.566 212.178 145.633 212.178 156.42 207.145C156.955 206.877 157.49 206.51 158.063 206.117C159.028 205.454 160.099 204.72 161.453 204.268H166.487L183.026 202.111C183.745 202.471 184.644 202.83 185.543 203.19C186.442 203.549 187.341 203.909 188.06 204.268C202.442 210.021 217.543 209.302 231.205 202.83C238.396 199.235 244.149 194.92 248.464 189.886C251.34 190.605 254.936 191.325 258.531 191.325C267.16 199.235 277.947 203.549 290.171 203.549L316.778 202.83C321.092 202.83 324.688 202.111 329.002 200.673C337.631 204.987 347.699 207.145 357.766 206.426H359.204C363.519 206.426 370.71 206.426 378.62 203.549C380.777 204.268 382.215 204.268 384.373 204.268H390.125C398.035 210.021 407.384 213.617 417.451 213.617C425.361 213.617 431.833 212.178 434.709 210.74C435.628 210.281 437.425 210.115 440.102 209.868ZM427.516 185.572C428.955 184.853 434.707 184.134 444.056 183.415C454.842 182.695 463.471 173.347 462.752 162.561C462.033 155.37 457.718 148.898 451.966 146.022V102.157C458.437 99.2804 462.752 92.0894 462.752 84.1794C462.033 73.3929 453.404 64.7638 442.617 64.7638H419.606C413.134 64.7638 408.101 67.6402 404.505 71.9548H385.809C378.618 71.9548 372.146 76.2693 368.551 81.303C364.236 82.0221 359.921 84.1794 357.045 87.7749C354.888 87.0558 353.45 87.0558 351.292 87.0558H349.854C349.135 82.7412 346.978 79.1457 344.101 76.2693C340.506 72.6739 334.753 70.5166 329.719 70.5166H328.281C328.281 71.2357 316.057 71.9548 302.394 71.9548L274.349 72.6739C270.035 72.6739 266.439 74.112 262.844 76.2693L262.125 74.112C261.406 71.9548 259.248 69.0784 257.81 67.6402C254.215 63.3256 249.181 61.1683 243.428 61.1683H240.552L221.855 64.0447C213.226 65.4829 207.473 71.2357 205.316 79.1457C198.125 75.5502 188.777 74.112 177.271 74.112C167.204 74.112 158.575 74.8311 154.26 75.5502C149.227 76.2693 144.193 79.1457 141.317 83.4603C140.957 84.1794 140.598 84.7187 140.238 85.258C139.879 85.7974 139.519 86.3367 139.159 87.0558C134.845 87.7749 130.53 89.9321 127.654 93.5276C125.497 92.8085 124.058 92.8085 121.901 92.8085C117.587 92.8085 113.272 93.5276 109.677 94.9658V87.0558C109.677 76.2693 101.047 66.9211 90.261 66.9211C85.2274 66.9211 80.9128 69.0784 77.3173 71.9548H72.2837C61.4973 71.9548 52.149 76.9884 47.1154 86.3367C44.6274 91.9346 43.7535 97.5324 43.0974 101.734C42.995 102.39 42.8979 103.012 42.8008 103.595V105.033C41.3626 112.224 42.0817 118.696 44.9581 124.449C42.0817 128.044 39.9244 132.359 39.9244 137.392C39.9244 137.392 39.2053 145.302 39.2053 150.336C38.691 155.48 38.9125 160.256 39.0803 163.874C39.1471 165.314 39.2053 166.571 39.2053 167.594V168.314C39.9244 179.1 48.5536 187.01 58.6209 187.01H60.0591C65.0927 187.01 70.1264 184.134 73.7219 180.538C73.7219 180.179 73.9016 179.999 74.0814 179.819C74.2612 179.639 74.441 179.46 74.441 179.1H78.7555C85.2274 179.1 92.4183 176.943 98.1711 173.347C103.924 181.257 113.991 187.01 126.935 187.01H130.53C134.126 187.01 139.159 187.01 144.912 184.134C145.379 183.9 145.865 183.667 146.363 183.427C148.937 182.191 151.851 180.79 154.26 178.381C156.418 179.1 157.856 179.1 160.013 179.1H162.89L183.743 176.224C184.462 175.864 185.182 175.684 185.901 175.504C186.62 175.325 187.339 175.145 188.058 174.785C190.215 176.943 193.092 179.1 196.687 180.538C200.283 181.976 204.597 182.695 208.193 182.695C211.788 182.695 216.103 181.257 219.698 179.819C227.608 176.224 232.642 170.471 235.518 161.842H237.675C240.552 161.842 243.428 161.842 245.585 160.403C246.305 160.403 247.024 161.123 247.743 161.842C251.338 163.999 255.653 165.437 259.967 165.437C264.282 165.437 267.877 163.999 271.473 161.842C272.911 170.471 281.54 177.662 290.888 177.662L317.495 176.943C322.529 176.943 327.562 174.785 331.158 171.19C336.91 177.662 345.54 181.257 356.326 181.257H359.921C363.517 181.257 368.551 181.257 374.303 178.381C374.663 178.021 375.202 177.842 375.742 177.662C376.281 177.482 376.82 177.302 377.18 176.943C379.337 178.381 382.213 179.1 385.09 179.1H401.629C402.348 180.538 403.786 181.976 405.224 183.415C408.82 187.01 413.854 188.448 418.168 188.448C421.016 188.448 423.413 187.546 425.359 186.813C425.869 186.621 426.349 186.44 426.797 186.291L427.516 185.572Z" fill="url(#paint0_linear)"/>
<path d="M73.0027 122.291C67.9691 121.572 65.0927 117.977 66.5309 107.91V106.471C67.9691 97.8422 68.6882 95.6849 73.0027 95.6849C74.4409 95.6849 75.8791 96.404 77.3173 97.8422C78.7555 99.2804 81.6319 101.438 83.0701 105.752C84.5083 108.629 84.5083 110.786 85.2274 112.943V115.82C85.2274 117.258 86.6655 118.696 88.8228 119.415C90.9801 120.134 93.1374 117.977 93.8565 115.82C93.8565 115.82 95.2947 88.4939 95.2947 87.7748C95.2947 85.6176 93.1374 83.4603 90.9801 83.4603C88.8228 83.4603 86.6655 85.6176 86.6655 87.7748V95.6849C83.0701 92.0894 78.7555 88.4939 73.7218 88.4939C60.059 86.3367 58.6208 98.5613 57.9017 105.752V107.19C56.4636 120.853 60.7781 129.482 71.5646 131.64C83.0701 133.797 90.9801 135.954 90.9801 143.145C90.9801 146.022 89.5419 148.898 86.6655 151.055C83.7892 153.932 79.4746 154.651 75.16 153.932C73.7218 153.932 73.0027 153.213 71.5646 153.213C70.1264 152.493 65.8118 150.336 64.3736 147.46C63.6545 144.583 62.9354 140.988 62.9354 138.831V137.392C62.9354 135.235 60.7781 133.078 58.6208 133.078C56.4636 133.078 54.3063 135.235 54.3063 137.392C54.3063 137.392 54.3063 146.022 53.5872 151.055C52.8681 159.684 53.5872 166.156 53.5872 166.875C53.5872 169.033 55.7445 171.19 57.9017 171.19C60.059 171.19 62.2163 169.033 62.2163 166.875V158.965C65.0927 161.123 69.4073 163.28 74.4409 163.999C80.9128 165.437 87.3846 163.28 92.4183 158.965C96.7329 155.37 99.6093 149.617 99.6093 144.583C99.6093 126.606 81.6319 123.73 73.0027 122.291V122.291ZM193.811 110.067C193.092 110.786 192.372 111.505 190.934 112.224C190.215 112.943 188.058 113.662 187.339 113.662L185.182 114.381C182.305 115.82 177.991 116.539 173.676 117.258V97.1231C185.182 97.1231 195.249 97.8422 197.406 101.438V102.876C197.406 104.314 195.968 107.19 193.811 110.067V110.067ZM218.979 148.898C216.822 148.179 213.945 149.617 213.226 151.774C211.788 156.808 210.35 156.808 209.631 157.527C208.912 158.246 207.473 157.527 205.316 156.808C205.316 156.808 204.597 155.37 203.878 154.651C203.159 153.213 202.44 147.46 202.44 143.864C202.44 130.921 199.563 123.73 195.968 120.134C198.125 118.696 200.283 116.539 200.283 116.539C205.316 109.348 206.754 103.595 203.878 98.5613C196.687 86.3367 165.766 89.9321 155.699 91.3703C153.541 91.3703 151.384 94.2467 152.103 96.404C152.103 98.5613 154.98 100.719 157.137 99.9995C159.294 99.9995 161.451 99.2804 163.609 99.2804V119.415H161.451C159.294 119.415 157.137 121.572 157.137 123.73C157.137 125.887 159.294 128.044 161.451 128.044H163.609V153.213L157.856 153.932C155.699 153.932 153.541 156.808 154.26 158.965C154.26 161.123 157.137 163.28 159.294 162.561L180.148 159.684C182.305 159.684 184.462 156.808 183.743 154.651C183.743 152.493 180.867 150.336 178.71 151.055L172.238 151.774V126.606C176.552 125.887 180.148 125.168 183.743 123.73H185.182C186.62 123.73 188.058 124.449 188.777 125.887C190.215 128.044 191.653 132.359 192.372 143.145C192.372 145.302 193.092 153.932 194.53 157.527C195.249 158.965 197.406 162.561 201.002 163.999C203.878 164.718 207.473 166.156 211.788 163.999C215.384 161.842 218.26 159.684 219.698 153.213C222.574 151.774 221.136 149.617 218.979 148.898V148.898ZM375.742 135.235C373.584 135.235 371.427 137.392 371.427 139.55V145.302C371.427 147.46 370.708 150.336 369.989 151.055C369.27 152.493 368.551 153.213 367.113 154.651C366.393 155.37 364.955 156.089 363.517 156.808C362.079 157.527 361.36 157.527 358.483 157.527H355.607C344.102 158.246 342.663 148.898 342.663 146.741V128.044C343.382 120.853 344.821 115.82 347.697 113.662C349.854 112.224 352.731 112.943 357.764 114.381C363.517 116.539 367.113 123.011 367.832 123.011C368.551 124.449 370.708 125.168 372.865 125.168C375.023 124.449 375.742 123.011 375.742 120.853V101.438C375.742 99.2804 373.584 97.1231 371.427 97.1231C369.27 97.1231 367.113 99.2804 367.113 101.438V109.348C365.674 107.91 363.517 107.19 361.36 105.752C359.203 104.314 350.573 100.719 344.102 105.033C339.068 108.629 335.472 115.1 334.753 125.887V146.022C335.472 152.493 340.506 165.437 356.326 165.437H358.483C361.36 165.437 364.236 165.437 367.113 163.999C369.27 163.28 371.427 161.842 373.584 159.684C375.023 158.246 375.742 156.808 377.18 154.651C378.618 151.774 379.337 146.741 380.056 145.302V138.112C380.056 136.673 377.899 135.235 375.742 135.235V135.235ZM446.932 163.999C446.932 161.842 444.775 159.684 442.618 159.684C441.179 159.684 439.022 159.684 436.865 160.403C436.865 153.213 436.865 138.112 436.146 89.213H442.618C444.775 89.213 446.932 87.0558 446.932 84.8985C446.932 82.7412 444.775 80.5839 442.618 80.5839L419.606 81.303C417.449 81.303 415.292 83.4603 415.292 85.6176C415.292 87.7749 417.449 89.9321 419.606 89.9321H426.797V120.134L400.91 124.449V97.1231H408.101C410.258 97.1231 412.416 94.9658 412.416 92.8085C412.416 90.6512 410.258 88.4939 408.101 88.4939H385.09C382.933 88.4939 380.775 90.6512 380.775 92.8085C380.775 94.9658 382.933 97.1231 385.09 97.1231H392.281V155.37H385.09C382.933 155.37 380.775 157.527 380.775 159.684C380.775 161.842 382.933 163.999 385.09 163.999L408.82 164.718C410.977 164.718 413.135 162.561 413.135 160.403C413.135 158.246 410.977 156.089 408.82 156.089H401.629V133.797L427.517 129.482V162.561C421.764 163.999 417.449 163.999 415.292 166.875C413.854 168.314 413.854 171.19 416.011 172.628C417.449 174.066 419.607 173.347 422.483 172.628C424.64 171.19 433.269 170.471 443.337 169.752C445.494 168.314 446.932 166.156 446.932 163.999" fill="url(#paint1_linear)"/>
<path d="M239.835 123.011L244.868 97.1231L254.216 120.853L239.835 123.011V123.011ZM277.947 130.202C276.508 130.921 274.351 131.64 270.037 133.797L264.284 120.134L247.745 80.5839C247.745 79.8648 247.026 78.4266 246.306 78.4266C245.587 77.7075 244.149 76.9884 242.711 76.9884L224.014 79.1457C221.857 79.1457 219.7 81.303 220.419 84.1794C220.419 86.3367 222.576 88.494 225.453 87.7749C225.453 87.7749 232.644 87.0558 238.396 86.3367C236.958 94.2467 230.486 126.606 228.329 136.673L215.385 135.954C213.228 135.954 211.071 137.392 211.071 140.269C211.071 142.426 212.509 144.583 215.385 144.583L236.958 145.303C239.115 145.303 241.273 143.864 241.273 140.988C241.273 138.831 239.835 136.673 236.958 136.673L237.677 130.202L257.812 126.606L262.126 137.392C258.531 139.55 257.093 140.269 254.936 142.426C253.497 144.583 254.216 146.741 255.655 148.179C257.812 149.617 260.688 148.898 262.126 147.46C264.284 144.583 272.194 140.988 280.104 138.112C282.261 137.392 283.699 134.516 282.98 132.359C282.261 130.921 280.104 129.482 277.947 130.202" fill="url(#paint2_linear)"/>
<path d="M329.719 86.3367C329.719 86.3367 316.776 87.0558 302.394 87.7749L274.349 88.4939C272.911 88.4939 272.192 89.213 270.753 89.9321C270.034 90.6512 269.315 92.0894 270.034 93.5276L273.63 115.1C273.63 117.258 276.506 119.415 278.664 118.696C280.821 118.696 282.259 116.539 282.259 114.381C282.259 114.381 280.821 102.876 279.383 97.1231H298.079V153.932H288.731C286.574 153.932 284.416 156.089 284.416 158.246C284.416 160.403 286.574 162.561 288.731 162.561L315.337 161.842C317.495 161.842 319.652 159.684 319.652 157.527C319.652 155.37 317.495 153.212 315.337 153.212H306.708V96.404C313.899 96.404 320.371 95.6849 324.686 95.6849V104.314C324.686 108.629 325.405 110.067 325.405 110.786C326.843 112.943 329 113.662 331.157 112.224C332.596 111.505 333.315 109.348 333.315 107.91C333.315 107.91 333.315 97.8422 334.034 92.0894C334.034 90.6512 334.034 89.9321 332.596 88.4939C332.596 87.0558 331.157 86.3367 329.719 86.3367V86.3367ZM146.35 139.55C144.193 139.55 142.036 141.707 142.036 143.864V150.336C142.036 151.774 141.316 154.651 140.597 156.089C139.878 157.527 139.159 158.246 137.721 159.684C137.002 160.403 135.564 161.123 134.125 161.842C132.687 162.561 131.968 162.561 129.092 162.561H126.215C114.71 162.561 113.272 153.932 113.272 151.774V133.078C113.991 125.887 115.429 120.853 118.305 118.696C120.463 117.258 123.339 117.977 128.373 119.415C134.125 121.572 138.44 128.044 138.44 128.044C139.159 129.482 141.316 130.201 143.474 130.201C145.631 129.482 146.35 128.044 146.35 125.887V106.471C146.35 104.314 144.193 102.157 142.036 102.157C139.878 102.157 137.721 104.314 137.721 106.471V114.381C136.283 112.943 134.125 111.505 131.968 110.786C129.092 109.348 121.182 106.471 113.991 110.067C108.957 113.662 105.362 120.134 104.643 130.921V151.055C105.362 157.527 110.395 170.471 126.935 170.471H129.092C131.968 170.471 134.845 170.471 137.721 169.033C139.878 168.313 142.035 166.875 144.193 164.718C145.631 163.28 146.35 161.842 147.788 159.684C149.226 156.808 149.946 151.774 150.665 150.336V143.145C150.665 141.707 148.507 139.55 146.35 139.55" fill="url(#paint3_linear)"/>
<defs>
<linearGradient id="paint0_linear" x1="250.5" y1="36" x2="250.5" y2="213.617" gradientUnits="userSpaceOnUse">
<stop stop-color="#FF5959"/>
<stop offset="1" stop-color="#FF6969"/>
</linearGradient>
<linearGradient id="paint1_linear" x1="250.1" y1="80.5839" x2="250.1" y2="173.458" gradientUnits="userSpaceOnUse">
<stop stop-color="#FF5959"/>
<stop offset="1" stop-color="#FF6969"/>
</linearGradient>
<linearGradient id="paint2_linear" x1="247.119" y1="76.9884" x2="247.119" y2="148.963" gradientUnits="userSpaceOnUse">
<stop stop-color="#FF5959"/>
<stop offset="1" stop-color="#FF6969"/>
</linearGradient>
<linearGradient id="paint3_linear" x1="219.338" y1="86.3367" x2="219.338" y2="170.471" gradientUnits="userSpaceOnUse">
<stop stop-color="#FF5959"/>
<stop offset="1" stop-color="#FF6969"/>
</linearGradient>
</defs>
</svg>
